<svg version="1.0" xmlns="http://www.w3.org/2000/svg" width="16pt" height="16pt" viewBox="0 0 2048.000000 2048.000000"
	preserveAspectRatio="xMidYMid meet">

	<g transform="translate(0.000000,2048.000000) scale(0.100000,-0.100000)" fill="#ffffff" stroke="none">
		<path d="M9855 20470 c-2409 -97 -4633 -995 -6440 -2600 -193 -172 -633 -612
-805 -805 -1480 -1667 -2367 -3704 -2564 -5895 -54 -592 -54 -1267 0 -1860
188 -2091 1018 -4074 2378 -5680 344 -406 800 -862 1206 -1206 1198 -1014
2617 -1741 4138 -2119 1864 -463 3846 -391 5662 207 1357 446 2564 1145 3650
2112 174 155 621 602 776 776 639 717 1129 1440 1548 2280 626 1259 965 2534
1057 3980 15 238 15 922 0 1160 -62 974 -227 1826 -525 2705 -443 1310 -1141
2503 -2080 3555 -159 179 -605 624 -784 783 -1759 1565 -3909 2459 -6242 2597
-249 14 -739 19 -975 10z m-3815 -3707 c58 -8 158 -32 223 -54 813 -266 1252
-1142 981 -1958 -176 -530 -629 -924 -1179 -1027 -148 -28 -422 -26 -565 5
-407 86 -746 313 -971 649 -271 405 -338 896 -184 1359 193 580 724 996 1330
1042 121 9 226 5 365 -16z m7972 -3903 c1490 -102 2461 -991 2707 -2480 71
-426 72 -507 69 -3515 l-3 -2600 -1287 -3 -1288 -2 0 2227 c0 2223 -3 2433
-36 2673 -65 485 -246 867 -510 1079 -236 190 -495 272 -862 272 -484 0 -839
-138 -1116 -432 -225 -239 -363 -567 -428 -1014 l-22 -150 -3 -2327 -4 -2328
-1239 0 -1240 0 0 4175 0 4175 1240 0 1240 0 0 -555 0 -555 66 97 c228 336
560 647 916 859 535 317 1125 450 1800 404z m-6912 -4425 l0 -4175 -1295 0
-1295 0 0 4175 0 4175 1295 0 1295 0 0 -4175z" />
	</g>
</svg>